<svg xmlns="http://www.w3.org/2000/svg" viewBox="0 0 1200 675" width="1200" height="675">
  <defs>
    <linearGradient id="bgGradient" x1="0%" y1="0%" x2="100%" y2="100%">
      <stop offset="0%" stop-color="#2563EB" stop-opacity="0.15"/>
      <stop offset="100%" stop-color="#3B82F6" stop-opacity="0.05"/>
    </linearGradient>
    <linearGradient id="accentGradient" x1="0%" y1="0%" x2="100%" y2="0%">
      <stop offset="0%" stop-color="#2563EB"/>
      <stop offset="100%" stop-color="#3B82F6"/>
    </linearGradient>
    <filter id="shadow" x="-20%" y="-20%" width="140%" height="140%">
      <feDropShadow dx="0" dy="4" stdDeviation="8" flood-color="#000" flood-opacity="0.3"/>
    </filter>
  </defs>
  <rect width="1200" height="675" fill="#0a0a0a"/>
  <rect width="1200" height="675" fill="url(#bgGradient)"/>
  <rect x="0" y="0" width="1200" height="4" fill="url(#accentGradient)"/>
  <text x="600" y="55" text-anchor="middle" font-family="system-ui, -apple-system, sans-serif" font-size="28" font-weight="700" fill="#2563EB">Estructura de una Cadena de Bloques</text>
    <rect x="120" y="180" width="280" height="300" rx="16" fill="rgba(255,255,255,0.03)" stroke="#2563EB" stroke-width="2" filter="url(#shadow)"/>

    <text x="260" y="230" text-anchor="middle" font-family="system-ui, sans-serif" font-size="28" font-weight="700" fill="#2563EB">Bloque #1</text>

    <line x1="140" y1="260" x2="380" y2="260" stroke="rgba(255,255,255,0.1)" stroke-width="1"/>

    <text x="150" y="300" font-family="system-ui, sans-serif" font-size="14" fill="rgba(255,255,255,0.5)">Hash:</text>
    <text x="150" y="325" font-family="monospace" font-size="16" fill="#2563EB">a1b2...</text>

    <text x="150" y="370" font-family="system-ui, sans-serif" font-size="14" fill="rgba(255,255,255,0.5)">Hash anterior:</text>
    <text x="150" y="395" font-family="monospace" font-size="16" fill="rgba(255,255,255,0.7)">0000...</text>

    <rect x="140" y="420" width="240" height="40" rx="8" fill="#2563EB" fill-opacity="0.2"/>
    <text x="260" y="447" text-anchor="middle" font-family="system-ui, sans-serif" font-size="14" fill="rgba(255,255,255,0.8)">Datos de transacciones</text>
      <line x1="400" y1="330" x2="460" y2="330" stroke="#2563EB" stroke-width="4" stroke-dasharray="8,4"/>
      <polygon points="450,322 465,330 450,338" fill="#2563EB"/>
    <rect x="460" y="180" width="280" height="300" rx="16" fill="rgba(255,255,255,0.03)" stroke="#2563EB" stroke-width="2" filter="url(#shadow)"/>

    <text x="600" y="230" text-anchor="middle" font-family="system-ui, sans-serif" font-size="28" font-weight="700" fill="#2563EB">Bloque #2</text>

    <line x1="480" y1="260" x2="720" y2="260" stroke="rgba(255,255,255,0.1)" stroke-width="1"/>

    <text x="490" y="300" font-family="system-ui, sans-serif" font-size="14" fill="rgba(255,255,255,0.5)">Hash:</text>
    <text x="490" y="325" font-family="monospace" font-size="16" fill="#2563EB">c3d4...</text>

    <text x="490" y="370" font-family="system-ui, sans-serif" font-size="14" fill="rgba(255,255,255,0.5)">Hash anterior:</text>
    <text x="490" y="395" font-family="monospace" font-size="16" fill="rgba(255,255,255,0.7)">a1b2...</text>

    <rect x="480" y="420" width="240" height="40" rx="8" fill="#2563EB" fill-opacity="0.2"/>
    <text x="600" y="447" text-anchor="middle" font-family="system-ui, sans-serif" font-size="14" fill="rgba(255,255,255,0.8)">Datos de transacciones</text>
      <line x1="740" y1="330" x2="800" y2="330" stroke="#2563EB" stroke-width="4" stroke-dasharray="8,4"/>
      <polygon points="790,322 805,330 790,338" fill="#2563EB"/>
    <rect x="800" y="180" width="280" height="300" rx="16" fill="rgba(255,255,255,0.03)" stroke="#2563EB" stroke-width="2" filter="url(#shadow)"/>

    <text x="940" y="230" text-anchor="middle" font-family="system-ui, sans-serif" font-size="28" font-weight="700" fill="#2563EB">Bloque #3</text>

    <line x1="820" y1="260" x2="1060" y2="260" stroke="rgba(255,255,255,0.1)" stroke-width="1"/>

    <text x="830" y="300" font-family="system-ui, sans-serif" font-size="14" fill="rgba(255,255,255,0.5)">Hash:</text>
    <text x="830" y="325" font-family="monospace" font-size="16" fill="#2563EB">e5f6...</text>

    <text x="830" y="370" font-family="system-ui, sans-serif" font-size="14" fill="rgba(255,255,255,0.5)">Hash anterior:</text>
    <text x="830" y="395" font-family="monospace" font-size="16" fill="rgba(255,255,255,0.7)">c3d4...</text>

    <rect x="820" y="420" width="240" height="40" rx="8" fill="#2563EB" fill-opacity="0.2"/>
    <text x="940" y="447" text-anchor="middle" font-family="system-ui, sans-serif" font-size="14" fill="rgba(255,255,255,0.8)">Datos de transacciones</text>
  <text x="1170" y="655" text-anchor="end" font-family="system-ui, -apple-system, sans-serif" font-size="14" fill="rgba(255,255,255,0.3)">Nodo360</text></svg>