<?xml version="1.0" encoding="UTF-8"?>
<svg width="1200" height="675" viewBox="0 0 1200 675" xmlns="http://www.w3.org/2000/svg">
  <defs>
    <linearGradient id="bgGrad" x1="0%" y1="0%" x2="100%" y2="100%">
      <stop offset="0%" style="stop-color:#1a1a2e;stop-opacity:1" />
      <stop offset="100%" style="stop-color:#16213e;stop-opacity:1" />
    </linearGradient>
    <marker id="arrowhead" markerWidth="10" markerHeight="7" refX="9" refY="3.5" orient="auto">
      <polygon points="0 0, 10 3.5, 0 7" fill="#F472B6"/>
    </marker>
  </defs>

  <!-- Background -->
  <rect width="1200" height="675" fill="url(#bgGrad)"/>

  <!-- Title -->
  <text x="600" y="50" font-family="Arial, sans-serif" font-size="32" font-weight="bold" fill="white" text-anchor="middle">Proceso de Votación en una DAO</text>

  <!-- Flow Steps -->
  
    <g transform="translate(100, 200)">
      <rect x="0" y="0" width="180" height="120" rx="15" fill="#EC4899" opacity="0.3"/>
      <circle cx="90" cy="-20" r="25" fill="#EC4899"/>
      <text x="90" y="-12" font-family="Arial, sans-serif" font-size="20" font-weight="bold" fill="white" text-anchor="middle">1</text>
      <text x="90" y="50" font-family="Arial, sans-serif" font-size="14" fill="white" text-anchor="middle">Paso 1</text>
      <rect x="20" y="70" width="140" height="10" rx="3" fill="white" opacity="0.3"/>
      <rect x="30" y="90" width="120" height="8" rx="3" fill="white" opacity="0.2"/>
    </g>
      <line x1="285" y1="260" x2="315" y2="410"
            stroke="#F472B6" stroke-width="2" marker-end="url(#arrowhead)"/>
    <g transform="translate(320, 350)">
      <rect x="0" y="0" width="180" height="120" rx="15" fill="#EC4899" opacity="0.44999999999999996"/>
      <circle cx="90" cy="-20" r="25" fill="#EC4899"/>
      <text x="90" y="-12" font-family="Arial, sans-serif" font-size="20" font-weight="bold" fill="white" text-anchor="middle">2</text>
      <text x="90" y="50" font-family="Arial, sans-serif" font-size="14" fill="white" text-anchor="middle">Paso 2</text>
      <rect x="20" y="70" width="140" height="10" rx="3" fill="white" opacity="0.3"/>
      <rect x="30" y="90" width="120" height="8" rx="3" fill="white" opacity="0.2"/>
    </g>
      <line x1="505" y1="410" x2="535" y2="260"
            stroke="#F472B6" stroke-width="2" marker-end="url(#arrowhead)"/>
    <g transform="translate(540, 200)">
      <rect x="0" y="0" width="180" height="120" rx="15" fill="#EC4899" opacity="0.6"/>
      <circle cx="90" cy="-20" r="25" fill="#EC4899"/>
      <text x="90" y="-12" font-family="Arial, sans-serif" font-size="20" font-weight="bold" fill="white" text-anchor="middle">3</text>
      <text x="90" y="50" font-family="Arial, sans-serif" font-size="14" fill="white" text-anchor="middle">Paso 3</text>
      <rect x="20" y="70" width="140" height="10" rx="3" fill="white" opacity="0.3"/>
      <rect x="30" y="90" width="120" height="8" rx="3" fill="white" opacity="0.2"/>
    </g>
      <line x1="725" y1="260" x2="755" y2="410"
            stroke="#F472B6" stroke-width="2" marker-end="url(#arrowhead)"/>
    <g transform="translate(760, 350)">
      <rect x="0" y="0" width="180" height="120" rx="15" fill="#EC4899" opacity="0.75"/>
      <circle cx="90" cy="-20" r="25" fill="#EC4899"/>
      <text x="90" y="-12" font-family="Arial, sans-serif" font-size="20" font-weight="bold" fill="white" text-anchor="middle">4</text>
      <text x="90" y="50" font-family="Arial, sans-serif" font-size="14" fill="white" text-anchor="middle">Paso 4</text>
      <rect x="20" y="70" width="140" height="10" rx="3" fill="white" opacity="0.3"/>
      <rect x="30" y="90" width="120" height="8" rx="3" fill="white" opacity="0.2"/>
    </g>
      <line x1="945" y1="410" x2="975" y2="260"
            stroke="#F472B6" stroke-width="2" marker-end="url(#arrowhead)"/>
    <g transform="translate(980, 200)">
      <rect x="0" y="0" width="180" height="120" rx="15" fill="#EC4899" opacity="0.8999999999999999"/>
      <circle cx="90" cy="-20" r="25" fill="#EC4899"/>
      <text x="90" y="-12" font-family="Arial, sans-serif" font-size="20" font-weight="bold" fill="white" text-anchor="middle">5</text>
      <text x="90" y="50" font-family="Arial, sans-serif" font-size="14" fill="white" text-anchor="middle">Paso 5</text>
      <rect x="20" y="70" width="140" height="10" rx="3" fill="white" opacity="0.3"/>
      <rect x="30" y="90" width="120" height="8" rx="3" fill="white" opacity="0.2"/>
    </g>

  <!-- Branding -->
  <text x="1150" y="650" font-family="Arial, sans-serif" font-size="14" fill="white" opacity="0.5" text-anchor="end">Nodo360</text>
</svg>