<?xml version="1.0" encoding="UTF-8"?>
<svg width="1200" height="675" viewBox="0 0 1200 675" xmlns="http://www.w3.org/2000/svg">
  <defs>
    <linearGradient id="bgGrad" x1="0%" y1="0%" x2="100%" y2="100%">
      <stop offset="0%" style="stop-color:#1a1a2e;stop-opacity:1" />
      <stop offset="100%" style="stop-color:#16213e;stop-opacity:1" />
    </linearGradient>
  </defs>

  <!-- Background -->
  <rect width="1200" height="675" fill="url(#bgGrad)"/>

  <!-- Title -->
  <text x="600" y="60" font-family="Arial, sans-serif" font-size="32" font-weight="bold" fill="white" text-anchor="middle">DeFi vs Finanzas Tradicionales</text>

  <!-- Left Box -->
  <rect x="80" y="100" width="480" height="480" rx="20" fill="#7C3AED" opacity="0.15" stroke="#7C3AED" stroke-width="2"/>
  <text x="320" y="160" font-family="Arial, sans-serif" font-size="24" font-weight="bold" fill="#A78BFA" text-anchor="middle">Opción A</text>

  <!-- Left Content -->
  <g transform="translate(120, 200)">
    
    <g transform="translate(0, 0)">
      <circle cx="15" cy="15" r="8" fill="#A78BFA"/>
      <rect x="40" y="5" width="300" height="20" rx="3" fill="white" opacity="0.3"/>
      <rect x="40" y="35" width="250" height="15" rx="3" fill="white" opacity="0.15"/>
    </g>
    <g transform="translate(0, 80)">
      <circle cx="15" cy="15" r="8" fill="#A78BFA"/>
      <rect x="40" y="5" width="300" height="20" rx="3" fill="white" opacity="0.3"/>
      <rect x="40" y="35" width="250" height="15" rx="3" fill="white" opacity="0.15"/>
    </g>
    <g transform="translate(0, 160)">
      <circle cx="15" cy="15" r="8" fill="#A78BFA"/>
      <rect x="40" y="5" width="300" height="20" rx="3" fill="white" opacity="0.3"/>
      <rect x="40" y="35" width="250" height="15" rx="3" fill="white" opacity="0.15"/>
    </g>
    <g transform="translate(0, 240)">
      <circle cx="15" cy="15" r="8" fill="#A78BFA"/>
      <rect x="40" y="5" width="300" height="20" rx="3" fill="white" opacity="0.3"/>
      <rect x="40" y="35" width="250" height="15" rx="3" fill="white" opacity="0.15"/>
    </g>
  </g>

  <!-- VS Circle -->
  <circle cx="600" cy="340" r="40" fill="#7C3AED"/>
  <text x="600" y="350" font-family="Arial, sans-serif" font-size="24" font-weight="bold" fill="white" text-anchor="middle">VS</text>

  <!-- Right Box -->
  <rect x="640" y="100" width="480" height="480" rx="20" fill="#6D28D9" opacity="0.15" stroke="#6D28D9" stroke-width="2"/>
  <text x="880" y="160" font-family="Arial, sans-serif" font-size="24" font-weight="bold" fill="#A78BFA" text-anchor="middle">Opción B</text>

  <!-- Right Content -->
  <g transform="translate(680, 200)">
    
    <g transform="translate(0, 0)">
      <circle cx="15" cy="15" r="8" fill="#A78BFA"/>
      <rect x="40" y="5" width="300" height="20" rx="3" fill="white" opacity="0.3"/>
      <rect x="40" y="35" width="250" height="15" rx="3" fill="white" opacity="0.15"/>
    </g>
    <g transform="translate(0, 80)">
      <circle cx="15" cy="15" r="8" fill="#A78BFA"/>
      <rect x="40" y="5" width="300" height="20" rx="3" fill="white" opacity="0.3"/>
      <rect x="40" y="35" width="250" height="15" rx="3" fill="white" opacity="0.15"/>
    </g>
    <g transform="translate(0, 160)">
      <circle cx="15" cy="15" r="8" fill="#A78BFA"/>
      <rect x="40" y="5" width="300" height="20" rx="3" fill="white" opacity="0.3"/>
      <rect x="40" y="35" width="250" height="15" rx="3" fill="white" opacity="0.15"/>
    </g>
    <g transform="translate(0, 240)">
      <circle cx="15" cy="15" r="8" fill="#A78BFA"/>
      <rect x="40" y="5" width="300" height="20" rx="3" fill="white" opacity="0.3"/>
      <rect x="40" y="35" width="250" height="15" rx="3" fill="white" opacity="0.15"/>
    </g>
  </g>

  <!-- Branding -->
  <text x="1150" y="650" font-family="Arial, sans-serif" font-size="14" fill="white" opacity="0.5" text-anchor="end">Nodo360</text>
</svg>