<?xml version="1.0" encoding="UTF-8"?>
<svg width="1200" height="675" viewBox="0 0 1200 675" xmlns="http://www.w3.org/2000/svg">
  <defs>
    <linearGradient id="bgGrad" x1="0%" y1="0%" x2="100%" y2="100%">
      <stop offset="0%" style="stop-color:#1a1a2e;stop-opacity:1" />
      <stop offset="100%" style="stop-color:#16213e;stop-opacity:1" />
    </linearGradient>
    <linearGradient id="chartGrad" x1="0%" y1="100%" x2="0%" y2="0%">
      <stop offset="0%" style="stop-color:#F7931A;stop-opacity:0.1" />
      <stop offset="100%" style="stop-color:#F7931A;stop-opacity:0.5" />
    </linearGradient>
  </defs>

  <!-- Background -->
  <rect width="1200" height="675" fill="url(#bgGrad)"/>

  <!-- Title -->
  <text x="600" y="50" font-family="Arial, sans-serif" font-size="32" font-weight="bold" fill="white" text-anchor="middle">Halvings y Ciclos de Precio</text>

  <!-- Chart Area -->
  <rect x="100" y="100" width="1000" height="450" rx="10" fill="white" opacity="0.03"/>

  <!-- Grid Lines -->
  <g stroke="white" stroke-opacity="0.1" stroke-width="1">
    <line x1="100" y1="200" x2="1100" y2="200"/>
    <line x1="100" y1="300" x2="1100" y2="300"/>
    <line x1="100" y1="400" x2="1100" y2="400"/>
    <line x1="100" y1="500" x2="1100" y2="500"/>
  </g>

  <!-- Chart Line -->
  <path d="M 150,480 Q 300,450 450,400 T 750,250 T 1050,150" fill="none" stroke="#F7931A" stroke-width="4"/>
  <path d="M 150,480 Q 300,450 450,400 T 750,250 T 1050,150 L 1050,550 L 150,550 Z" fill="url(#chartGrad)"/>

  <!-- Data Points -->
  <circle cx="150" cy="480" r="8" fill="#FFB84D"/>
  <circle cx="450" cy="400" r="8" fill="#FFB84D"/>
  <circle cx="750" cy="250" r="8" fill="#FFB84D"/>
  <circle cx="1050" cy="150" r="8" fill="#FFB84D"/>

  <!-- Labels -->
  <text x="150" y="580" font-family="Arial, sans-serif" font-size="14" fill="white" opacity="0.7" text-anchor="middle">2012</text>
  <text x="450" y="580" font-family="Arial, sans-serif" font-size="14" fill="white" opacity="0.7" text-anchor="middle">2016</text>
  <text x="750" y="580" font-family="Arial, sans-serif" font-size="14" fill="white" opacity="0.7" text-anchor="middle">2020</text>
  <text x="1050" y="580" font-family="Arial, sans-serif" font-size="14" fill="white" opacity="0.7" text-anchor="middle">2024</text>

  <!-- Branding -->
  <text x="1150" y="650" font-family="Arial, sans-serif" font-size="14" fill="white" opacity="0.5" text-anchor="end">Nodo360</text>
</svg>