<?xml version="1.0" encoding="UTF-8"?>
<svg width="1200" height="675" viewBox="0 0 1200 675" xmlns="http://www.w3.org/2000/svg">
  <defs>
    <linearGradient id="bgGrad" x1="0%" y1="0%" x2="100%" y2="100%">
      <stop offset="0%" style="stop-color:#1a1a2e;stop-opacity:1" />
      <stop offset="100%" style="stop-color:#16213e;stop-opacity:1" />
    </linearGradient>
  </defs>

  <!-- Background -->
  <rect width="1200" height="675" fill="url(#bgGrad)"/>

  <!-- Title -->
  <text x="600" y="50" font-family="Arial, sans-serif" font-size="32" font-weight="bold" fill="white" text-anchor="middle">Historia de los Halvings</text>

  <!-- Timeline Line -->
  <line x1="100" y1="340" x2="1100" y2="340" stroke="#F7931A" stroke-width="4"/>

  <!-- Timeline Points -->
  
    <g>
      <!-- Point -->
      <circle cx="150" cy="340" r="20" fill="#F7931A"/>
      <circle cx="150" cy="340" r="12" fill="#FFB84D"/>

      <!-- Connector -->
      <line x1="150" y1="320" x2="150" y2="250" stroke="#F7931A" stroke-width="2"/>

      <!-- Content Box -->
      <rect x="50" y="150" width="200" height="80" rx="10" fill="#F7931A" opacity="0.2"/>
      <text x="150" y="185" font-family="Arial, sans-serif" font-size="20" font-weight="bold" fill="#FFB84D" text-anchor="middle">2012</text>
      <text x="150" y="210" font-family="Arial, sans-serif" font-size="14" fill="white" opacity="0.8" text-anchor="middle">Halving #1</text>
    </g>
    <g>
      <!-- Point -->
      <circle cx="450" cy="340" r="20" fill="#F7931A"/>
      <circle cx="450" cy="340" r="12" fill="#FFB84D"/>

      <!-- Connector -->
      <line x1="450" y1="360" x2="450" y2="410" stroke="#F7931A" stroke-width="2"/>

      <!-- Content Box -->
      <rect x="350" y="430" width="200" height="80" rx="10" fill="#F7931A" opacity="0.2"/>
      <text x="450" y="465" font-family="Arial, sans-serif" font-size="20" font-weight="bold" fill="#FFB84D" text-anchor="middle">2016</text>
      <text x="450" y="490" font-family="Arial, sans-serif" font-size="14" fill="white" opacity="0.8" text-anchor="middle">Halving #2</text>
    </g>
    <g>
      <!-- Point -->
      <circle cx="750" cy="340" r="20" fill="#F7931A"/>
      <circle cx="750" cy="340" r="12" fill="#FFB84D"/>

      <!-- Connector -->
      <line x1="750" y1="320" x2="750" y2="250" stroke="#F7931A" stroke-width="2"/>

      <!-- Content Box -->
      <rect x="650" y="150" width="200" height="80" rx="10" fill="#F7931A" opacity="0.2"/>
      <text x="750" y="185" font-family="Arial, sans-serif" font-size="20" font-weight="bold" fill="#FFB84D" text-anchor="middle">2020</text>
      <text x="750" y="210" font-family="Arial, sans-serif" font-size="14" fill="white" opacity="0.8" text-anchor="middle">Halving #3</text>
    </g>
    <g>
      <!-- Point -->
      <circle cx="1050" cy="340" r="20" fill="#F7931A"/>
      <circle cx="1050" cy="340" r="12" fill="#FFB84D"/>

      <!-- Connector -->
      <line x1="1050" y1="360" x2="1050" y2="410" stroke="#F7931A" stroke-width="2"/>

      <!-- Content Box -->
      <rect x="950" y="430" width="200" height="80" rx="10" fill="#F7931A" opacity="0.2"/>
      <text x="1050" y="465" font-family="Arial, sans-serif" font-size="20" font-weight="bold" fill="#FFB84D" text-anchor="middle">2024</text>
      <text x="1050" y="490" font-family="Arial, sans-serif" font-size="14" fill="white" opacity="0.8" text-anchor="middle">Halving #4</text>
    </g>

  <!-- Branding -->
  <text x="1150" y="650" font-family="Arial, sans-serif" font-size="14" fill="white" opacity="0.5" text-anchor="end">Nodo360</text>
</svg>