<?xml version="1.0" encoding="UTF-8"?>
<svg width="1200" height="675" viewBox="0 0 1200 675" xmlns="http://www.w3.org/2000/svg">
  <defs>
    <linearGradient id="bgGrad" x1="0%" y1="0%" x2="100%" y2="100%">
      <stop offset="0%" style="stop-color:#1a1a2e;stop-opacity:1" />
      <stop offset="100%" style="stop-color:#16213e;stop-opacity:1" />
    </linearGradient>
  </defs>

  <!-- Background -->
  <rect width="1200" height="675" fill="url(#bgGrad)"/>

  <!-- Title -->
  <text x="600" y="50" font-family="Arial, sans-serif" font-size="32" font-weight="bold" fill="white" text-anchor="middle">Comparativa de Layer 2s</text>

  <!-- Table -->
  <g transform="translate(100, 90)">
    <!-- Header Row -->
    <rect x="0" y="0" width="1000" height="60" fill="#2563EB" opacity="0.3"/>
    <text x="200" y="40" font-family="Arial, sans-serif" font-size="18" font-weight="bold" fill="white" text-anchor="middle">Característica</text>
    <text x="500" y="40" font-family="Arial, sans-serif" font-size="18" font-weight="bold" fill="white" text-anchor="middle">Opción A</text>
    <text x="800" y="40" font-family="Arial, sans-serif" font-size="18" font-weight="bold" fill="white" text-anchor="middle">Opción B</text>

    <!-- Data Rows -->
    
    <rect x="0" y="60" width="1000" height="80" fill="white" opacity="0.05"/>
    <line x1="0" y1="140" x2="1000" y2="140" stroke="white" stroke-opacity="0.1"/>
    <rect x="50" y="90" width="300" height="20" rx="3" fill="white" opacity="0.3"/>
    <circle cx="500" cy="100" r="12" fill="#2563EB" opacity="0.8"/>
    <circle cx="800" cy="100" r="12" fill="#1D4ED8" opacity="0.6"/>
    <rect x="0" y="140" width="1000" height="80" fill="white" opacity="0.02"/>
    <line x1="0" y1="220" x2="1000" y2="220" stroke="white" stroke-opacity="0.1"/>
    <rect x="50" y="170" width="300" height="20" rx="3" fill="white" opacity="0.3"/>
    <circle cx="500" cy="180" r="12" fill="#2563EB" opacity="0.8"/>
    <circle cx="800" cy="180" r="12" fill="#1D4ED8" opacity="0.6"/>
    <rect x="0" y="220" width="1000" height="80" fill="white" opacity="0.05"/>
    <line x1="0" y1="300" x2="1000" y2="300" stroke="white" stroke-opacity="0.1"/>
    <rect x="50" y="250" width="300" height="20" rx="3" fill="white" opacity="0.3"/>
    <circle cx="500" cy="260" r="12" fill="#2563EB" opacity="0.8"/>
    <circle cx="800" cy="260" r="12" fill="#1D4ED8" opacity="0.6"/>
    <rect x="0" y="300" width="1000" height="80" fill="white" opacity="0.02"/>
    <line x1="0" y1="380" x2="1000" y2="380" stroke="white" stroke-opacity="0.1"/>
    <rect x="50" y="330" width="300" height="20" rx="3" fill="white" opacity="0.3"/>
    <circle cx="500" cy="340" r="12" fill="#2563EB" opacity="0.8"/>
    <circle cx="800" cy="340" r="12" fill="#1D4ED8" opacity="0.6"/>
    <rect x="0" y="380" width="1000" height="80" fill="white" opacity="0.05"/>
    <line x1="0" y1="460" x2="1000" y2="460" stroke="white" stroke-opacity="0.1"/>
    <rect x="50" y="410" width="300" height="20" rx="3" fill="white" opacity="0.3"/>
    <circle cx="500" cy="420" r="12" fill="#2563EB" opacity="0.8"/>
    <circle cx="800" cy="420" r="12" fill="#1D4ED8" opacity="0.6"/>
  </g>

  <!-- Branding -->
  <text x="1150" y="650" font-family="Arial, sans-serif" font-size="14" fill="white" opacity="0.5" text-anchor="end">Nodo360</text>
</svg>