<svg xmlns="http://www.w3.org/2000/svg" viewBox="0 0 1200 675" width="1200" height="675">
  <defs>
    <linearGradient id="bgGradient" x1="0%" y1="0%" x2="100%" y2="100%">
      <stop offset="0%" stop-color="#2563EB" stop-opacity="0.15"/>
      <stop offset="100%" stop-color="#3B82F6" stop-opacity="0.05"/>
    </linearGradient>
    <linearGradient id="accentGradient" x1="0%" y1="0%" x2="100%" y2="0%">
      <stop offset="0%" stop-color="#2563EB"/>
      <stop offset="100%" stop-color="#3B82F6"/>
    </linearGradient>
    <filter id="shadow" x="-20%" y="-20%" width="140%" height="140%">
      <feDropShadow dx="0" dy="4" stdDeviation="8" flood-color="#000" flood-opacity="0.3"/>
    </filter>
  </defs>
  <rect width="1200" height="675" fill="#0a0a0a"/>
  <rect width="1200" height="675" fill="url(#bgGradient)"/>
  <rect x="0" y="0" width="1200" height="4" fill="url(#accentGradient)"/>
  <text x="600" y="55" text-anchor="middle" font-family="system-ui, -apple-system, sans-serif" font-size="28" font-weight="700" fill="#2563EB">El Problema de Escalabilidad</text>
      <text x="180" y="152" text-anchor="end" font-family="system-ui, sans-serif" font-size="16" font-weight="600" fill="white">Visa</text>
      <rect x="200" y="120" width="800" height="50" rx="8" fill="rgba(255,255,255,0.05)"/>
      <rect x="200" y="120" width="800" height="50" rx="8" fill="url(#accentGradient)"/>
      <text x="1015" y="152" font-family="system-ui, sans-serif" font-size="14" fill="rgba(255,255,255,0.8)">24,000 TPS</text>
      <text x="180" y="232" text-anchor="end" font-family="system-ui, sans-serif" font-size="16" font-weight="600" fill="white">Solana</text>
      <rect x="200" y="200" width="800" height="50" rx="8" fill="rgba(255,255,255,0.05)"/>
      <rect x="200" y="200" width="800" height="50" rx="8" fill="url(#accentGradient)"/>
      <text x="1015" y="232" font-family="system-ui, sans-serif" font-size="14" fill="rgba(255,255,255,0.8)">65,000 TPS*</text>
      <text x="180" y="312" text-anchor="end" font-family="system-ui, sans-serif" font-size="16" font-weight="600" fill="white">Ethereum L2</text>
      <rect x="200" y="280" width="800" height="50" rx="8" fill="rgba(255,255,255,0.05)"/>
      <rect x="200" y="280" width="64" height="50" rx="8" fill="url(#accentGradient)"/>
      <text x="279" y="312" font-family="system-ui, sans-serif" font-size="14" fill="rgba(255,255,255,0.8)">2,000+ TPS</text>
      <text x="180" y="392" text-anchor="end" font-family="system-ui, sans-serif" font-size="16" font-weight="600" fill="white">Ethereum L1</text>
      <rect x="200" y="360" width="800" height="50" rx="8" fill="rgba(255,255,255,0.05)"/>
      <rect x="200" y="360" width="0.48" height="50" rx="8" fill="url(#accentGradient)"/>
      <text x="215.48" y="392" font-family="system-ui, sans-serif" font-size="14" fill="rgba(255,255,255,0.8)">15 TPS</text>
      <text x="180" y="472" text-anchor="end" font-family="system-ui, sans-serif" font-size="16" font-weight="600" fill="white">Bitcoin</text>
      <rect x="200" y="440" width="800" height="50" rx="8" fill="rgba(255,255,255,0.05)"/>
      <rect x="200" y="440" width="0.24" height="50" rx="8" fill="url(#accentGradient)"/>
      <text x="215.24" y="472" font-family="system-ui, sans-serif" font-size="14" fill="rgba(255,255,255,0.8)">7 TPS</text>
  <text x="1170" y="655" text-anchor="end" font-family="system-ui, -apple-system, sans-serif" font-size="14" fill="rgba(255,255,255,0.3)">Nodo360</text></svg>