<svg xmlns="http://www.w3.org/2000/svg" viewBox="0 0 1200 675" width="1200" height="675">
  <defs>
    <linearGradient id="bgGradient" x1="0%" y1="0%" x2="100%" y2="100%">
      <stop offset="0%" stop-color="#F7931A" stop-opacity="0.15"/>
      <stop offset="100%" stop-color="#FF9F43" stop-opacity="0.05"/>
    </linearGradient>
    <linearGradient id="accentGradient" x1="0%" y1="0%" x2="100%" y2="0%">
      <stop offset="0%" stop-color="#F7931A"/>
      <stop offset="100%" stop-color="#FF9F43"/>
    </linearGradient>
    <filter id="shadow" x="-20%" y="-20%" width="140%" height="140%">
      <feDropShadow dx="0" dy="4" stdDeviation="8" flood-color="#000" flood-opacity="0.3"/>
    </filter>
  </defs>
  <rect width="1200" height="675" fill="#0a0a0a"/>
  <rect width="1200" height="675" fill="url(#bgGradient)"/>
  <rect x="0" y="0" width="1200" height="4" fill="url(#accentGradient)"/>
  <text x="600" y="55" text-anchor="middle" font-family="system-ui, -apple-system, sans-serif" font-size="28" font-weight="700" fill="#F7931A">Checklist de Seguridad</text>
    <rect x="150" y="120" width="40" height="40" rx="8" fill="#F7931A" fill-opacity="0.2" stroke="#F7931A" stroke-width="2"/>
    <path d="M160 140 L168 148 L180 132" stroke="#F7931A" stroke-width="3" fill="none" stroke-linecap="round" stroke-linejoin="round"/>

    <text x="210" y="148" font-family="system-ui, sans-serif" font-size="20" fill="rgba(255,255,255,0.9)">✓ Seed phrase offline en metal</text>
    <rect x="150" y="200" width="40" height="40" rx="8" fill="#F7931A" fill-opacity="0.2" stroke="#F7931A" stroke-width="2"/>
    <path d="M160 220 L168 228 L180 212" stroke="#F7931A" stroke-width="3" fill="none" stroke-linecap="round" stroke-linejoin="round"/>

    <text x="210" y="228" font-family="system-ui, sans-serif" font-size="20" fill="rgba(255,255,255,0.9)">✓ 2FA con app (no SMS)</text>
    <rect x="150" y="280" width="40" height="40" rx="8" fill="#F7931A" fill-opacity="0.2" stroke="#F7931A" stroke-width="2"/>
    <path d="M160 300 L168 308 L180 292" stroke="#F7931A" stroke-width="3" fill="none" stroke-linecap="round" stroke-linejoin="round"/>

    <text x="210" y="308" font-family="system-ui, sans-serif" font-size="20" fill="rgba(255,255,255,0.9)">✓ Hardware wallet para >$1000</text>
    <rect x="150" y="360" width="40" height="40" rx="8" fill="#F7931A" fill-opacity="0.2" stroke="#F7931A" stroke-width="2"/>
    <path d="M160 380 L168 388 L180 372" stroke="#F7931A" stroke-width="3" fill="none" stroke-linecap="round" stroke-linejoin="round"/>

    <text x="210" y="388" font-family="system-ui, sans-serif" font-size="20" fill="rgba(255,255,255,0.9)">✓ Verificar URLs siempre</text>
    <rect x="150" y="440" width="40" height="40" rx="8" fill="#F7931A" fill-opacity="0.2" stroke="#F7931A" stroke-width="2"/>
    <path d="M160 460 L168 468 L180 452" stroke="#F7931A" stroke-width="3" fill="none" stroke-linecap="round" stroke-linejoin="round"/>

    <text x="210" y="468" font-family="system-ui, sans-serif" font-size="20" fill="rgba(255,255,255,0.9)">✓ Revocar aprobaciones DeFi</text>
    <rect x="150" y="520" width="40" height="40" rx="8" fill="#F7931A" fill-opacity="0.2" stroke="#F7931A" stroke-width="2"/>
    <path d="M160 540 L168 548 L180 532" stroke="#F7931A" stroke-width="3" fill="none" stroke-linecap="round" stroke-linejoin="round"/>

    <text x="210" y="548" font-family="system-ui, sans-serif" font-size="20" fill="rgba(255,255,255,0.9)">✓ Nunca compartir seed</text>
  <text x="1170" y="655" text-anchor="end" font-family="system-ui, -apple-system, sans-serif" font-size="14" fill="rgba(255,255,255,0.3)">Nodo360</text></svg>