<?xml version="1.0" encoding="UTF-8"?>
<svg width="1200" height="675" viewBox="0 0 1200 675" xmlns="http://www.w3.org/2000/svg">
  <defs>
    <linearGradient id="bgGrad" x1="0%" y1="0%" x2="100%" y2="100%">
      <stop offset="0%" style="stop-color:#1a1a2e;stop-opacity:1" />
      <stop offset="100%" style="stop-color:#16213e;stop-opacity:1" />
    </linearGradient>
  </defs>

  <!-- Background -->
  <rect width="1200" height="675" fill="url(#bgGrad)"/>

  <!-- Title -->
  <text x="600" y="50" font-family="Arial, sans-serif" font-size="32" font-weight="bold" fill="white" text-anchor="middle">Capas de Seguridad Recomendadas</text>

  <!-- Pyramid Layers -->
  <g transform="translate(200, 100)">
    <!-- Level 4 (Top) -->
    <polygon points="400,0 500,100 300,100" fill="#F7931A" opacity="0.9"/>
    <text x="400" y="70" font-family="Arial, sans-serif" font-size="14" fill="white" text-anchor="middle">Nodo Propio</text>

    <!-- Level 3 -->
    <polygon points="300,100 500,100 550,180 250,180" fill="#F7931A" opacity="0.7"/>
    <text x="400" y="150" font-family="Arial, sans-serif" font-size="16" fill="white" text-anchor="middle">Hardware Wallet</text>

    <!-- Level 2 -->
    <polygon points="250,180 550,180 620,280 180,280" fill="#F7931A" opacity="0.5"/>
    <text x="400" y="240" font-family="Arial, sans-serif" font-size="18" fill="white" text-anchor="middle">Software Wallet</text>

    <!-- Level 1 (Base) -->
    <polygon points="180,280 620,280 700,400 100,400" fill="#F7931A" opacity="0.3"/>
    <text x="400" y="350" font-family="Arial, sans-serif" font-size="20" fill="white" text-anchor="middle">Exchange Custodial</text>
  </g>

  <!-- Arrow and label -->
  <g transform="translate(900, 200)">
    <line x1="0" y1="200" x2="0" y2="0" stroke="#FFB84D" stroke-width="3" marker-end="url(#arrowhead)"/>
    <text x="20" y="100" font-family="Arial, sans-serif" font-size="16" fill="#FFB84D">Mayor</text>
    <text x="20" y="120" font-family="Arial, sans-serif" font-size="16" fill="#FFB84D">Soberanía</text>
  </g>

  <!-- Branding -->
  <text x="1150" y="650" font-family="Arial, sans-serif" font-size="14" fill="white" opacity="0.5" text-anchor="end">Nodo360</text>
</svg>