<svg xmlns="http://www.w3.org/2000/svg" viewBox="0 0 1200 675" width="1200" height="675">
  <defs>
    <linearGradient id="bgGradient" x1="0%" y1="0%" x2="100%" y2="100%">
      <stop offset="0%" stop-color="#7C3AED" stop-opacity="0.15"/>
      <stop offset="100%" stop-color="#8B5CF6" stop-opacity="0.05"/>
    </linearGradient>
    <linearGradient id="accentGradient" x1="0%" y1="0%" x2="100%" y2="0%">
      <stop offset="0%" stop-color="#7C3AED"/>
      <stop offset="100%" stop-color="#8B5CF6"/>
    </linearGradient>
    <filter id="shadow" x="-20%" y="-20%" width="140%" height="140%">
      <feDropShadow dx="0" dy="4" stdDeviation="8" flood-color="#000" flood-opacity="0.3"/>
    </filter>
  </defs>
  <rect width="1200" height="675" fill="#0a0a0a"/>
  <rect width="1200" height="675" fill="url(#bgGradient)"/>
  <rect x="0" y="0" width="1200" height="4" fill="url(#accentGradient)"/>
  <text x="600" y="55" text-anchor="middle" font-family="system-ui, -apple-system, sans-serif" font-size="28" font-weight="700" fill="#7C3AED">Cómo Funciona el Staking</text>
    <rect x="260" y="240" width="140" height="120" rx="12" fill="rgba(255,255,255,0.05)" stroke="#7C3AED" stroke-width="2" filter="url(#shadow)"/>
    <text x="330" y="280" text-anchor="middle" font-family="system-ui, sans-serif" font-size="16" font-weight="600" fill="#7C3AED">1. Bloqueo</text>
    <text x="330" y="315" text-anchor="middle" font-family="system-ui, sans-serif" font-size="13" fill="rgba(255,255,255,0.7)">Depositas tokens</text>
      <path d="M405 300 L435 300" stroke="#7C3AED" stroke-width="2" stroke-dasharray="5,5"/>
      <polygon points="430,294 440,300 430,306" fill="#7C3AED"/>
    <rect x="440" y="240" width="140" height="120" rx="12" fill="rgba(255,255,255,0.05)" stroke="#7C3AED" stroke-width="2" filter="url(#shadow)"/>
    <text x="510" y="280" text-anchor="middle" font-family="system-ui, sans-serif" font-size="16" font-weight="600" fill="#7C3AED">2. Validación</text>
    <text x="510" y="315" text-anchor="middle" font-family="system-ui, sans-serif" font-size="13" fill="rgba(255,255,255,0.7)">Aseguras la red</text>
      <path d="M585 300 L615 300" stroke="#7C3AED" stroke-width="2" stroke-dasharray="5,5"/>
      <polygon points="610,294 620,300 610,306" fill="#7C3AED"/>
    <rect x="620" y="240" width="140" height="120" rx="12" fill="rgba(255,255,255,0.05)" stroke="#7C3AED" stroke-width="2" filter="url(#shadow)"/>
    <text x="690" y="280" text-anchor="middle" font-family="system-ui, sans-serif" font-size="16" font-weight="600" fill="#7C3AED">3. Rewards</text>
    <text x="690" y="315" text-anchor="middle" font-family="system-ui, sans-serif" font-size="13" fill="rgba(255,255,255,0.7)">Recibes recompensas</text>
      <path d="M765 300 L795 300" stroke="#7C3AED" stroke-width="2" stroke-dasharray="5,5"/>
      <polygon points="790,294 800,300 790,306" fill="#7C3AED"/>
    <rect x="800" y="240" width="140" height="120" rx="12" fill="rgba(255,255,255,0.05)" stroke="#7C3AED" stroke-width="2" filter="url(#shadow)"/>
    <text x="870" y="280" text-anchor="middle" font-family="system-ui, sans-serif" font-size="16" font-weight="600" fill="#7C3AED">4. Compound</text>
    <text x="870" y="315" text-anchor="middle" font-family="system-ui, sans-serif" font-size="13" fill="rgba(255,255,255,0.7)">Reinviertes</text>
  <text x="1170" y="655" text-anchor="end" font-family="system-ui, -apple-system, sans-serif" font-size="14" fill="rgba(255,255,255,0.3)">Nodo360</text></svg>